<svg width="200" height="200" viewBox="0 0 200 200" fill="none" xmlns="http://www.w3.org/2000/svg">
<g clip-path="url(#clip0_16_6)">
<path d="M97.5 1.44337C99.047 0.55021 100.953 0.550212 102.5 1.44338L184.103 48.5566C185.65 49.4498 186.603 51.1004 186.603 52.8867V147.113C186.603 148.9 185.65 150.55 184.103 151.443L102.5 198.557C100.953 199.45 99.047 199.45 97.5 198.557L15.8975 151.443C14.3505 150.55 13.3975 148.9 13.3975 147.113V52.8867C13.3975 51.1004 14.3505 49.4498 15.8975 48.5566L97.5 1.44337Z" fill="#199417"/>
<path d="M100 17.7735L171.21 58.8868L171.21 141.113L100 182.227L28.7898 141.113L28.7898 58.8868L100 17.7735Z" fill="#199417" stroke="white" stroke-width="10"/>
<path d="M124.701 139L124.591 98.19L104.791 131.41H95.111L75.311 99.07V139H55.291V62H73.221L100.281 106.44L126.681 62H144.611L144.831 139H124.701Z" fill="white"/>
</g>
<defs>
<clipPath id="clip0_16_6">
<rect width="200" height="200" fill="white"/>
</clipPath>
</defs>
</svg>
